<svg width="24" height="25" viewBox="0 0 24 25" fill="none" xmlns="http://www.w3.org/2000/svg">
<path d="M11.6196 2.17082C11.7393 1.8023 12.2607 1.8023 12.3804 2.17082L14.6044 9.0154C14.6579 9.18021 14.8115 9.2918 14.9848 9.2918H22.1816C22.5691 9.2918 22.7302 9.78764 22.4167 10.0154L16.5944 14.2456C16.4542 14.3474 16.3955 14.528 16.4491 14.6928L18.673 21.5374C18.7927 21.9059 18.3709 22.2124 18.0575 21.9846L12.2351 17.7544C12.0949 17.6526 11.9051 17.6526 11.7649 17.7544L5.94254 21.9846C5.62905 22.2124 5.20726 21.9059 5.327 21.5374L7.55094 14.6928C7.60449 14.528 7.54583 14.3474 7.40563 14.2456L1.58328 10.0154C1.2698 9.78764 1.43091 9.2918 1.8184 9.2918H9.01521C9.18851 9.2918 9.34209 9.18021 9.39564 9.0154L11.6196 2.17082Z" stroke="#4C5A74"/>
</svg>
