<svg width="128" height="23" viewBox="0 0 128 23" fill="none" xmlns="http://www.w3.org/2000/svg">
<path d="M128 11.5C128 5.13592 122.838 0 116.441 0H11.8467C5.56207 0 0.231358 4.8568 0.00690763 11.1092C-0.217543 17.6408 5.05705 23 11.5661 23H116.441C122.838 23 128 17.8641 128 11.5ZM11.5661 21.2136C6.06708 21.2136 1.57806 16.6917 1.80251 11.165C1.97085 5.91748 6.51598 1.78641 11.8467 1.78641H65.8832C60.4964 1.78641 56.1196 6.14078 56.1196 11.5C56.1196 16.8592 60.4403 21.2136 65.8832 21.2136H11.5661ZM73.5707 15.6869C73.5707 15.8544 73.4023 16.0218 73.234 16.0218H67.6788C67.6227 16.0218 67.5105 15.966 67.4544 15.9102C67.3983 15.8544 67.3422 15.7985 67.3422 15.6869V7.14563C67.3422 6.97816 67.5105 6.81068 67.6788 6.81068H69.0816C69.25 6.81068 69.4183 6.97816 69.4183 7.14563V14.0121H73.234C73.4023 14.0121 73.5707 14.1796 73.5707 14.3471V15.6869ZM76.8813 15.6869C76.8813 15.8544 76.713 16.0218 76.5446 16.0218H75.1979C75.0296 16.0218 74.8613 15.8544 74.8613 15.6869V7.14563C74.8613 6.97816 75.0296 6.81068 75.1979 6.81068H76.6008C76.7691 6.81068 76.9374 6.97816 76.9374 7.14563V15.6869H76.8813ZM86.4205 15.6869C86.4205 15.8544 86.2521 16.0218 86.0838 16.0218H84.7371C84.7371 16.0218 84.681 16.0218 84.6249 16.0218C84.6249 16.0218 84.6249 16.0218 84.5688 16.0218L84.5126 15.966C84.4565 15.966 84.4565 15.9102 84.4565 15.9102L80.3603 10.3277V15.6869C80.3603 15.8544 80.192 16.0218 80.0236 16.0218H78.6208C78.4525 16.0218 78.2841 15.8544 78.2841 15.6869V7.14563C78.2841 6.97816 78.4525 6.81068 78.6208 6.81068H79.9675H80.0236L80.1359 6.8665C80.1359 6.8665 80.1359 6.8665 80.1359 6.92233L84.2321 12.449V7.14563C84.2321 6.97816 84.4004 6.81068 84.5688 6.81068H85.9716C86.1399 6.81068 86.3083 6.97816 86.3083 7.14563V15.6869H86.4205ZM94.1079 8.54126C94.1079 8.70874 93.9396 8.87621 93.7712 8.87621H89.9556V10.4393H93.7712C93.9396 10.4393 94.1079 10.6068 94.1079 10.7743V12.1699C94.1079 12.3374 93.9396 12.5049 93.7712 12.5049H89.9556V14.068H93.7712C93.9396 14.068 94.1079 14.2354 94.1079 14.4029V15.7985C94.1079 15.966 93.9396 16.1335 93.7712 16.1335H88.2722C88.2161 16.1335 88.1039 16.0777 88.0477 16.0218C87.9916 15.966 87.9355 15.9102 87.9355 15.7985V7.14563C87.9355 7.08981 87.9916 6.97815 88.0477 6.92233C88.1039 6.8665 88.16 6.81068 88.2722 6.81068H93.7712C93.9396 6.81068 94.1079 6.97816 94.1079 7.14563V8.54126ZM100.954 13.733H99.6631V15.6869C99.6631 15.8544 99.4947 16.0218 99.3264 16.0218H97.9236C97.7552 16.0218 97.5869 15.8544 97.5869 15.6869V7.14563C97.5869 6.97816 97.7552 6.81068 97.9236 6.81068H100.898C102.805 6.81068 104.377 8.37379 104.377 10.2718C104.433 12.2257 102.861 13.733 100.954 13.733ZM110.998 15.6311C110.998 15.8544 110.83 16.0218 110.605 16.0218H107.238C105.892 16.0218 104.769 14.8495 104.882 13.5097C104.994 12.2816 106.06 11.3325 107.351 11.3325H109.314C109.258 10.8301 109.034 10.6626 108.978 10.6068C108.641 10.3835 107.912 10.1602 106.228 10.551C106.004 10.6068 105.835 10.4951 105.779 10.2718L105.555 9.37864C105.499 9.15534 105.611 8.98786 105.835 8.93204C107.182 8.65291 108.866 8.42961 109.988 9.32281C110.437 9.65777 110.998 10.3835 110.998 11.6675V15.6311ZM114.589 17.8641H113.018C112.85 17.8641 112.737 17.6966 112.793 17.5291L113.916 14.8495L111.615 9.09951C111.559 8.87621 111.671 8.65291 111.896 8.65291H113.298C113.467 8.65291 113.579 8.76456 113.635 8.87621L114.982 12.2816L116.385 8.87621C116.441 8.76456 116.609 8.65291 116.721 8.65291H118.236C118.405 8.65291 118.517 8.82039 118.461 8.98786C118.461 8.98786 115.319 16.3568 114.814 17.6408C114.87 17.8083 114.757 17.8641 114.589 17.8641Z" fill="white"/>
<path d="M100.954 8.82031H99.6631V11.7232H100.954C101.739 11.7232 102.413 11.0533 102.413 10.2718C102.413 9.49022 101.739 8.82031 100.954 8.82031Z" fill="white"/>
<path d="M106.565 13.7888C106.621 14.1237 106.901 14.347 107.238 14.347H109.258V13.0072H107.182C106.845 13.0072 106.509 13.3422 106.565 13.7888Z" fill="white"/>
<path d="M19.5904 14.3471C18.5804 14.3471 17.7387 13.5097 17.7387 12.5049C17.7387 11.5 18.5804 10.6627 19.5904 10.6627C20.6005 10.6627 21.4422 11.5 21.4422 12.5049C21.4422 13.5656 20.6005 14.3471 19.5904 14.3471ZM19.5904 8.65295C17.3459 8.65295 15.6064 10.3835 15.6064 12.5607C15.6064 14.6821 17.2337 16.4127 19.2538 16.4127C19.9271 16.4127 20.376 16.2452 20.9372 15.8544L21.4422 15.5195V16.1894H23.4622V12.7282C23.5183 10.3277 21.8911 8.65295 19.5904 8.65295Z" fill="white"/>
<path d="M28.4562 14.3472C27.4462 14.3472 26.6045 13.5098 26.6045 12.5049C26.6045 11.5001 27.4462 10.6627 28.4562 10.6627C29.4662 10.6627 30.3079 11.5001 30.3079 12.5049C30.3079 13.5656 29.4662 14.3472 28.4562 14.3472ZM28.7368 8.65299C28.1195 8.65299 27.6145 8.82047 27.0534 9.15542L26.5484 9.49037V5.63843H24.5283V12.3375C24.5283 14.7379 26.1556 16.4685 28.4562 16.4685C30.7007 16.4685 32.4402 14.7379 32.4402 12.5608C32.3841 10.3836 30.7007 8.65299 28.7368 8.65299Z" fill="white"/>
<path d="M37.1535 14.3472C36.1434 14.3472 35.3018 13.5098 35.3018 12.5049C35.3018 11.5001 36.1434 10.6627 37.1535 10.6627C38.1635 10.6627 39.0052 11.5001 39.0052 12.5049C39.0613 13.5656 38.2196 14.3472 37.1535 14.3472ZM37.434 8.65299C36.8168 8.65299 36.3118 8.82047 35.7507 9.15542L35.2456 9.49037V5.63843H33.2256V12.3375C33.2256 14.7379 34.8529 16.4685 37.1535 16.4685C39.398 16.4685 41.1375 14.7379 41.1375 12.5608C41.0814 10.3836 39.398 8.65299 37.434 8.65299Z" fill="white"/>
<path d="M44.168 8.8761H42.0918V16.1892H44.168V8.8761Z" fill="white"/>
<path d="M49.3858 10.6069V8.87629H47.3658V5.63843H45.3457V13.3423C45.3457 14.5705 45.5702 15.1845 46.2435 15.687C46.8046 16.0777 47.3096 16.1894 48.5441 16.1894H49.3858V14.403H48.7686C47.7024 14.403 47.3658 14.1239 47.3658 13.0632V10.6069H49.3858Z" fill="white"/>
<path d="M15.1007 8.65295C12.8562 8.65295 11.1729 10.3835 11.1729 12.7282V16.1894H13.1929V12.9515C13.1929 11.5 13.9224 10.6627 15.1007 10.6627H15.1569H15.213V8.65295H15.1569C15.1569 8.65295 15.1569 8.65295 15.1007 8.65295Z" fill="white"/>
</svg>
